# xmcd
#
# Track frame offsets:
#	150
#	16799
#	36944
#	59756
#	89141
#	110665
#	127686
#	148641
#	166300
#	184755
#	201777
#	224607
#
# Disc length: 3349 seconds
#
# Revision: 1
# Processed by: cddbd v1.4b42PL0 Copyright (c) Steve Scherf et al.
# Submitted via: audiograbber 1.80
#
DISCID=b20d130c
DTITLE=Bar-B-Q Blues Boys, The - Mystery Train
DYEAR=1900
DGENRE=
TTITLE0=They're Red Hot
TTITLE1=Richmond Blues
TTITLE2=Ruff n' Tuff
TTITLE3=Good Morning Blues
TTITLE4=Mystery Train
TTITLE5=Mona Dupree
TTITLE6=Gravel Road - Rollin' and Tumblin'
TTITLE7=Freight Train - Railroad Bill
TTITLE8=Beale Street Boogie
TTITLE9=Cut Down that Old Pine Tree
TTITLE10=Dust My Broom
TTITLE11=Hesitation Blues
EXTD=
EXTT0=
EXTT1=
EXTT2=
EXTT3=
EXTT4=
EXTT5=
EXTT6=
EXTT7=
EXTT8=
EXTT9=
EXTT10=
EXTT11=
PLAYORDER=
